<svg xmlns="http://www.w3.org/2000/svg" version="1.1" xmlns:xlink="http://www.w3.org/1999/xlink" xmlns:svgjs="http://svgjs.dev/svgjs" width="1500" height="1518" viewBox="0 0 1500 1518"><g transform="matrix(1,0,0,1,1.325901639344238,0.6145748987853494)"><svg viewBox="0 0 244 247" data-background-color="#ffffff" preserveAspectRatio="xMidYMid meet" height="1518" width="1500" xmlns="http://www.w3.org/2000/svg" xmlns:xlink="http://www.w3.org/1999/xlink"><g id="tight-bounds" transform="matrix(1,0,0,1,-0.21567999999999188,-0.09999999999999432)"><svg viewBox="0 0 244.43135999999998 247.2" height="247.2" width="244.43135999999998"><rect width="244.43135999999998" height="247.2" fill="url(#36f9e4f1-38b3-43a6-a56b-318908158bce)" mask="url(#c0c3a865-0819-4950-8a40-ab436c61bac3)" data-fill-palette-color="tertiary"></rect><g><svg></svg></g><g><svg viewBox="0 0 244.43135999999998 247.2" height="247.2" width="244.43135999999998"><g transform="matrix(1,0,0,1,0,53.68867126113287)"><svg viewBox="0 0 244.43135999999998 139.82265747773425" height="139.82265747773425" width="244.43135999999998"><g><svg viewBox="0 0 244.43135999999998 139.82265747773425" height="139.82265747773425" width="244.43135999999998"><g transform="matrix(1,0,0,1,0,61.45015063105522)"><svg viewBox="0 0 244.43135999999998 78.37250684667904" height="78.37250684667904" width="244.43135999999998"><g id="textblocktransform"><svg viewBox="0 0 244.43135999999998 78.37250684667904" height="78.37250684667904" width="244.43135999999998" id="textblock"><g><svg viewBox="0 0 244.43135999999998 78.37250684667904" height="78.37250684667904" width="244.43135999999998"><rect width="244.43135999999998" height="78.37250684667904" x="0" y="0" opacity="1" fill="url(#36f9e4f1-38b3-43a6-a56b-318908158bce)" data-fill-palette-color="tertiary"></rect><g transform="matrix(1,0,0,1,14.589496799999985,14.5894968)"><svg width="215.2523664" viewBox="4.3 -38.06 170.89999999999998 39.06" height="49.193513246679046" data-palette-color="#ffffff"><path d="M7.3-1.86L7.3-1.86Q9.99-0.49 12.6-0.49L12.6-0.49Q14.18-0.49 15.54-0.96 16.89-1.44 17.88-2.39 18.87-3.34 19.43-4.75 20-6.15 20-8.01L20-8.01Q20-9.4 19.7-10.44 19.41-11.47 18.58-12.46 17.75-13.45 16.26-14.58 14.77-15.7 12.35-17.26L12.35-17.26Q8.5-19.78 6.73-22.09 4.96-24.41 4.96-26.81L4.96-26.81Q4.96-29.15 5.93-30.92 6.91-32.69 8.51-33.87 10.11-35.06 12.12-35.66 14.14-36.25 16.21-36.25L16.21-36.25Q19.95-36.25 22.9-34.55L22.9-34.55Q22.22-30.76 20.51-27.2L20.51-27.2 19.85-27.54Q20-28.47 20.08-29.31 20.17-30.15 20.17-30.9 20.17-31.64 20.09-32.26 20.02-32.89 19.9-33.45L19.9-33.45Q17.94-34.59 15.7-34.59L15.7-34.59Q14.28-34.59 13-34.17 11.72-33.74 10.74-32.91 9.77-32.08 9.18-30.87 8.59-29.66 8.59-28.1L8.59-28.1Q8.59-27 8.98-26.05 9.38-25.1 10.19-24.15 11.01-23.19 12.24-22.17 13.48-21.14 15.16-19.9L15.16-19.9Q16.16-19.17 17.04-18.57 17.92-17.97 18.68-17.43 19.43-16.89 20.08-16.38 20.73-15.87 21.29-15.28L21.29-15.28Q24-12.43 24-8.64L24-8.64Q24-6.1 23.11-4.27 22.22-2.44 20.68-1.27 19.14-0.1 17.09 0.45 15.04 1 12.74 1L12.74 1Q8.62 1 4.3-0.66L4.3-0.66Q5.05-4.59 6.69-8.01L6.69-8.01 7.35-7.64Q7.06-6.27 7.06-4.3 7.06-2.32 7.3-1.86ZM30.69-11.89L30.69-11.89Q30.69-14.48 31.54-16.91 32.39-19.34 33.98-21.23 35.57-23.12 37.83-24.26 40.09-25.39 42.89-25.39L42.89-25.39Q44.65-25.39 46.21-24.79 47.78-24.19 48.94-22.94 50.1-21.68 50.77-19.71 51.44-17.75 51.44-15.04L51.44-15.04 50.49-14.16 34.54-14.16Q34.49-13.75 34.49-13.35 34.49-12.96 34.49-12.57L34.49-12.57Q34.49-9.91 35.12-7.74 35.74-5.57 36.8-4.02 37.86-2.47 39.3-1.61 40.74-0.76 42.36-0.76L42.36-0.76Q43.38-0.76 44.44-0.92 45.51-1.07 46.52-1.42 47.53-1.76 48.48-2.29 49.44-2.83 50.24-3.59L50.24-3.59 51.24-2.54Q49.31-0.63 47.04 0.18 44.77 1 41.79 1L41.79 1Q39.45 1 37.41 0.1 35.37-0.81 33.88-2.49 32.39-4.17 31.54-6.56 30.69-8.94 30.69-11.89ZM42.36-23.71L42.36-23.71Q38.57-23.71 36.81-21.74 35.06-19.78 34.69-16.09L34.69-16.09 48.29-16.09Q48.09-20.09 46.49-21.9 44.89-23.71 42.36-23.71ZM74.95-17.65L74.95-2.76Q74.95-2.34 75.13-1.99 75.31-1.64 75.57-1.4 75.83-1.17 76.31-0.95 76.8-0.73 77.17-0.61 77.53-0.49 78.19-0.29L78.19-0.29 78 0.29Q76.44 0 74.9 0L74.9 0Q72.97 0 71.09 0.39L71.09 0.39 70.94 0.15Q71.45-0.56 71.45-2.44L71.45-2.44 71.45-4.05Q70.23-1.78 67.66-0.39 65.08 1 62.45 1L62.45 1Q59.64 1 57.92-0.45 56.2-1.9 56.2-4.76L56.2-4.76Q56.2-6.62 56.97-8.07 57.73-9.52 59.02-10.53 60.3-11.55 62.31-12.33 64.33-13.11 66.46-13.6 68.6-14.09 71.45-14.5L71.45-14.5 71.45-16.75Q71.45-23.46 66.16-23.46L66.16-23.46Q64.45-23.46 61.97-22.62 59.49-21.78 57.81-20.41L57.81-20.41 56.81-21.56Q58.93-23.24 61.85-24.34 64.77-25.44 67.3-25.44L67.3-25.44Q68.43-25.44 69.44-25.23 70.45-25.02 71.49-24.48 72.53-23.93 73.27-23.08 74.02-22.24 74.48-20.84 74.95-19.43 74.95-17.65L74.95-17.65ZM63.59-0.85L63.59-0.85Q65.72-0.85 68.04-2.26 70.36-3.66 71.45-5.76L71.45-5.76 71.45-13.21Q65.2-12.3 62.53-10.44 59.86-8.57 59.86-5L59.86-5Q59.86-2.83 60.79-1.84 61.71-0.85 63.59-0.85ZM91.33-32.59L91.33-32.59 91.33-4.39Q91.33-2.42 92.13-1.51 92.94-0.61 95.18-0.2L95.18-0.2 94.99 0.39Q92.28 0.02 90.86 0 89.45-0.02 87.25 0.39L87.25 0.39 87.08 0.15Q87.59-0.56 87.59-2.44L87.59-2.44 87.59-28.1Q87.59-31.54 86.76-32.74 85.93-33.94 83.29-33.74L83.29-33.74 83.2-34.2Q87.22-35.4 90.84-35.4L90.84-35.4Q91.33-34.06 91.33-32.59ZM103.58-2.44L103.58-18.09Q103.58-19.73 103.42-20.83 103.26-21.92 102.86-22.58 102.46-23.24 101.75-23.51 101.04-23.78 100.25-23.78 99.45-23.78 99.28-23.75L99.28-23.75 99.18-24.19Q103.16-25.39 106.58-25.39L106.58-25.39Q107.09-24.1 107.09-22.61L107.09-22.61 107.09-21.9Q108.51-22.85 109.71-23.56 110.9-24.27 112.06-24.76 113.22-25.24 114.44-25.49 115.66-25.73 117.13-25.73L117.13-25.73Q118.45-25.73 119.75-25.39 121.06-25.05 122.1-24.17 123.13-23.29 123.78-21.78 124.43-20.26 124.43-17.94L124.43-17.94 124.43-2.76Q124.43-2.17 124.71-1.78 124.99-1.39 125.44-1.12 125.89-0.85 126.48-0.67 127.07-0.49 127.7-0.29L127.7-0.29 127.48 0.29Q126.11 0 123.84 0L123.84 0Q122.45 0 120.6 0.39L120.6 0.39 120.45 0.15Q120.94-0.56 120.94-2.44L120.94-2.44 120.94-17.04Q120.94-19.09 120.55-20.4 120.16-21.7 119.48-22.45 118.81-23.19 117.92-23.49 117.03-23.78 116.03-23.78L116.03-23.78Q114.81-23.78 113.75-23.56 112.69-23.34 111.62-22.89 110.56-22.44 109.46-21.77 108.36-21.09 107.09-20.19L107.09-20.19 107.09-3.34Q107.09-2.56 107.22-2.09 107.34-1.61 107.73-1.29 108.12-0.98 108.83-0.73 109.54-0.49 110.68-0.2L110.68-0.2 110.49 0.39Q109.07 0.2 108.08 0.1 107.09 0 106.48 0L106.48 0Q105.09 0 103.24 0.39L103.24 0.39 103.09 0.15Q103.58-0.56 103.58-2.44L103.58-2.44ZM141.59-35.55L141.59-35.55Q140.3-34.69 139.73-31.93 139.17-29.17 139.05-24.44L139.05-24.44 147.16-24.44 147.16-23.61Q146.72-23.41 146.11-23.23 145.5-23.05 144.81-22.91 144.13-22.78 143.43-22.69 142.74-22.61 142.15-22.61L142.15-22.61 139.05-22.61 139.05-4.39Q139.05-3.42 139.26-2.71 139.47-2 139.95-1.51 140.44-1.03 141.22-0.71 142-0.39 143.15-0.2L143.15-0.2 142.93 0.39Q141.54 0.2 140.42 0.1 139.29 0 138.44 0L138.44 0Q137.05 0 135.19 0.39L135.19 0.39 135.05 0.15Q135.53-0.56 135.53-2.44L135.53-2.44 135.53-22.46 131.38-22.19 131.38-23.56Q133.87-24.34 135.53-24.34L135.53-24.34 135.53-25.15Q135.53-27.27 135.73-29.06 135.93-30.86 136.49-32.34 137.05-33.81 138.04-34.95 139.03-36.08 140.64-36.89L140.64-36.89Q141.91-37.52 143.26-37.79 144.62-38.06 146.25-38.06L146.25-38.06Q146.89-38.06 147.56-38.02 148.23-37.99 148.99-37.94L148.99-37.94Q149.01-37.67 149.01-37.41 149.01-37.16 149.01-36.66 149.01-36.16 148.95-35.4 148.89-34.64 148.79-33.94 148.69-33.23 148.56-32.59 148.43-31.96 148.25-31.49L148.25-31.49 147.45-31.64Q147.45-32.1 147.36-32.8 147.28-33.5 147.16-34.18 147.03-34.86 146.89-35.41 146.74-35.96 146.59-36.16L146.59-36.16Q145.52-36.43 144.64-36.43L144.64-36.43Q142.93-36.43 141.59-35.55ZM163.19-25.39L163.19-25.39Q168.81-25.39 172.01-21.95 175.2-18.51 175.2-12.35L175.2-12.35Q175.2-8.79 173.57-5.71 171.93-2.64 169.13-0.82 166.32 1 163.05 1L163.05 1Q157.41 1 154.22-2.4 151.03-5.81 151.03-12.06L151.03-12.06Q151.03-15.77 152.67-18.84 154.31-21.9 157.1-23.65 159.9-25.39 163.19-25.39ZM162.7-23.71L162.7-23.71Q160.78-23.71 159.36-23.14 157.94-22.58 157.09-21.63 156.24-20.68 155.72-19.21 155.21-17.75 155.03-16.21 154.84-14.67 154.84-12.65L154.84-12.65Q154.84-9.42 155.61-7.02 156.38-4.61 157.68-3.28 158.97-1.95 160.43-1.33 161.9-0.71 163.53-0.71L163.53-0.71Q165.44-0.71 166.87-1.31 168.3-1.9 169.15-2.87 170-3.83 170.52-5.31 171.03-6.79 171.21-8.3 171.4-9.81 171.4-11.74L171.4-11.74Q171.4-14.45 170.88-16.58 170.37-18.7 169.53-20.02 168.69-21.34 167.53-22.19 166.37-23.05 165.19-23.38 164.02-23.71 162.7-23.71Z" opacity="1" transform="matrix(1,0,0,1,0,0)" fill="#ffffff" class="wordmark-text-0" data-fill-palette-color="quaternary" id="text-0"></path></svg></g></svg></g></svg></g></svg></g><g transform="matrix(1,0,0,1,101.60063091189883,0)"><svg viewBox="0 0 41.230098176202326 54.15540223105523" height="54.15540223105523" width="41.230098176202326"><g><svg xmlns="http://www.w3.org/2000/svg" xmlns:xlink="http://www.w3.org/1999/xlink" version="1.1" x="0" y="0" viewBox="13.645000000000003 2.248 72.71000000000001 95.50399999999998" enable-background="new 0 0 100 100" xml:space="preserve" height="54.15540223105523" width="41.230098176202326" class="icon-icon-0" data-fill-palette-color="accent" id="icon-0"></svg></g></svg></g><g></g></svg></g></svg></g><path d="M0 47.689L0 1 244.431 1 244.431 47.689 241.645 47.689 241.645 3.787 2.787 3.787 2.787 47.689 0 47.689M0 199.511L0 246.2 244.431 246.2 244.431 199.511 241.645 199.511 241.645 243.413 2.787 243.413 2.787 199.511 0 199.511" fill="url(#36f9e4f1-38b3-43a6-a56b-318908158bce)" stroke="transparent" data-fill-palette-color="tertiary"></path></svg></g><defs></defs><mask id="794ef6c0-f106-4e94-b3ba-a16a0dd24e26"><g id="SvgjsG2569"><svg viewBox="0 0 244.43135999999998 247.2" height="247.2" width="244.43135999999998"><g><svg></svg></g><g><svg viewBox="0 0 244.43135999999998 247.2" height="247.2" width="244.43135999999998"><g transform="matrix(1,0,0,1,0,53.68867126113287)"><svg viewBox="0 0 244.43135999999998 139.82265747773425" height="139.82265747773425" width="244.43135999999998"><g><svg viewBox="0 0 244.43135999999998 139.82265747773425" height="139.82265747773425" width="244.43135999999998"><g transform="matrix(1,0,0,1,0,61.45015063105522)"><svg viewBox="0 0 244.43135999999998 78.37250684667904" height="78.37250684667904" width="244.43135999999998"><g id="SvgjsG2568"><svg viewBox="0 0 244.43135999999998 78.37250684667904" height="78.37250684667904" width="244.43135999999998" id="SvgjsSvg2567"><g><svg viewBox="0 0 244.43135999999998 78.37250684667904" height="78.37250684667904" width="244.43135999999998"><rect width="244.43135999999998" height="78.37250684667904" x="0" y="0" opacity="1" fill="black"></rect><g transform="matrix(1,0,0,1,14.589496799999985,14.5894968)"><svg width="215.2523664" viewBox="4.3 -38.06 170.89999999999998 39.06" height="49.193513246679046" data-palette-color="#ffffff"><path d="M7.3-1.86L7.3-1.86Q9.99-0.49 12.6-0.49L12.6-0.49Q14.18-0.49 15.54-0.96 16.89-1.44 17.88-2.39 18.87-3.34 19.43-4.75 20-6.15 20-8.01L20-8.01Q20-9.4 19.7-10.44 19.41-11.47 18.58-12.46 17.75-13.45 16.26-14.58 14.77-15.7 12.35-17.26L12.35-17.26Q8.5-19.78 6.73-22.09 4.96-24.41 4.96-26.81L4.96-26.81Q4.96-29.15 5.93-30.92 6.91-32.69 8.51-33.87 10.11-35.06 12.12-35.66 14.14-36.25 16.21-36.25L16.21-36.25Q19.95-36.25 22.9-34.55L22.9-34.55Q22.22-30.76 20.51-27.2L20.51-27.2 19.85-27.54Q20-28.47 20.08-29.31 20.17-30.15 20.17-30.9 20.17-31.64 20.09-32.26 20.02-32.89 19.9-33.45L19.9-33.45Q17.94-34.59 15.7-34.59L15.7-34.59Q14.28-34.59 13-34.17 11.72-33.74 10.74-32.91 9.77-32.08 9.18-30.87 8.59-29.66 8.59-28.1L8.59-28.1Q8.59-27 8.98-26.05 9.38-25.1 10.19-24.15 11.01-23.19 12.24-22.17 13.48-21.14 15.16-19.9L15.16-19.9Q16.16-19.17 17.04-18.57 17.92-17.97 18.68-17.43 19.43-16.89 20.08-16.38 20.73-15.87 21.29-15.28L21.29-15.28Q24-12.43 24-8.64L24-8.64Q24-6.1 23.11-4.27 22.22-2.44 20.68-1.27 19.14-0.1 17.09 0.45 15.04 1 12.74 1L12.74 1Q8.62 1 4.3-0.66L4.3-0.66Q5.05-4.59 6.69-8.01L6.69-8.01 7.35-7.64Q7.06-6.27 7.06-4.3 7.06-2.32 7.3-1.86ZM30.69-11.89L30.69-11.89Q30.69-14.48 31.54-16.91 32.39-19.34 33.98-21.23 35.57-23.12 37.83-24.26 40.09-25.39 42.89-25.39L42.89-25.39Q44.65-25.39 46.21-24.79 47.78-24.19 48.94-22.94 50.1-21.68 50.77-19.71 51.44-17.75 51.44-15.04L51.44-15.04 50.49-14.16 34.54-14.16Q34.49-13.75 34.49-13.35 34.49-12.96 34.49-12.57L34.49-12.57Q34.49-9.91 35.12-7.74 35.74-5.57 36.8-4.02 37.86-2.47 39.3-1.61 40.74-0.76 42.36-0.76L42.36-0.76Q43.38-0.76 44.44-0.92 45.51-1.07 46.52-1.42 47.53-1.76 48.48-2.29 49.44-2.83 50.24-3.59L50.24-3.59 51.24-2.54Q49.31-0.63 47.04 0.18 44.77 1 41.79 1L41.79 1Q39.45 1 37.41 0.1 35.37-0.81 33.88-2.49 32.39-4.17 31.54-6.56 30.69-8.94 30.69-11.89ZM42.36-23.71L42.36-23.71Q38.57-23.71 36.81-21.74 35.06-19.78 34.69-16.09L34.69-16.09 48.29-16.09Q48.09-20.09 46.49-21.9 44.89-23.71 42.36-23.71ZM74.95-17.65L74.95-2.76Q74.95-2.34 75.13-1.99 75.31-1.64 75.57-1.4 75.83-1.17 76.31-0.95 76.8-0.73 77.17-0.61 77.53-0.49 78.19-0.29L78.19-0.29 78 0.29Q76.44 0 74.9 0L74.9 0Q72.97 0 71.09 0.39L71.09 0.39 70.94 0.15Q71.45-0.56 71.45-2.44L71.45-2.44 71.45-4.05Q70.23-1.78 67.66-0.39 65.08 1 62.45 1L62.45 1Q59.64 1 57.92-0.45 56.2-1.9 56.2-4.76L56.2-4.76Q56.2-6.62 56.97-8.07 57.73-9.52 59.02-10.53 60.3-11.55 62.31-12.33 64.33-13.11 66.46-13.6 68.6-14.09 71.45-14.5L71.45-14.5 71.45-16.75Q71.45-23.46 66.16-23.46L66.16-23.46Q64.45-23.46 61.97-22.62 59.49-21.78 57.81-20.41L57.81-20.41 56.81-21.56Q58.93-23.24 61.85-24.34 64.77-25.44 67.3-25.44L67.3-25.44Q68.43-25.44 69.44-25.23 70.45-25.02 71.49-24.48 72.53-23.93 73.27-23.08 74.02-22.24 74.48-20.84 74.95-19.43 74.95-17.65L74.95-17.65ZM63.59-0.85L63.59-0.85Q65.72-0.85 68.04-2.26 70.36-3.66 71.45-5.76L71.45-5.76 71.45-13.21Q65.2-12.3 62.53-10.44 59.86-8.57 59.86-5L59.86-5Q59.86-2.83 60.79-1.84 61.71-0.85 63.59-0.85ZM91.33-32.59L91.33-32.59 91.33-4.39Q91.33-2.42 92.13-1.51 92.94-0.61 95.18-0.2L95.18-0.2 94.99 0.39Q92.28 0.02 90.86 0 89.45-0.02 87.25 0.39L87.25 0.39 87.08 0.15Q87.59-0.56 87.59-2.44L87.59-2.44 87.59-28.1Q87.59-31.54 86.76-32.74 85.93-33.94 83.29-33.74L83.29-33.74 83.2-34.2Q87.22-35.4 90.84-35.4L90.84-35.4Q91.33-34.06 91.33-32.59ZM103.58-2.44L103.58-18.09Q103.58-19.73 103.42-20.83 103.26-21.92 102.86-22.58 102.46-23.24 101.75-23.51 101.04-23.78 100.25-23.78 99.45-23.78 99.28-23.75L99.28-23.75 99.18-24.19Q103.16-25.39 106.58-25.39L106.58-25.39Q107.09-24.1 107.09-22.61L107.09-22.61 107.09-21.9Q108.51-22.85 109.71-23.56 110.9-24.27 112.06-24.76 113.22-25.24 114.44-25.49 115.66-25.73 117.13-25.73L117.13-25.73Q118.45-25.73 119.75-25.39 121.06-25.05 122.1-24.17 123.13-23.29 123.78-21.78 124.43-20.26 124.43-17.94L124.43-17.94 124.43-2.76Q124.43-2.17 124.71-1.78 124.99-1.39 125.44-1.12 125.89-0.85 126.48-0.67 127.07-0.49 127.7-0.29L127.7-0.29 127.48 0.29Q126.11 0 123.84 0L123.84 0Q122.45 0 120.6 0.39L120.6 0.39 120.45 0.15Q120.94-0.56 120.94-2.44L120.94-2.44 120.94-17.04Q120.94-19.09 120.55-20.4 120.16-21.7 119.48-22.45 118.81-23.19 117.92-23.49 117.03-23.78 116.03-23.78L116.03-23.78Q114.81-23.78 113.75-23.56 112.69-23.34 111.62-22.89 110.56-22.44 109.46-21.77 108.36-21.09 107.09-20.19L107.09-20.19 107.09-3.34Q107.09-2.56 107.22-2.09 107.34-1.61 107.73-1.29 108.12-0.98 108.83-0.73 109.54-0.49 110.68-0.2L110.68-0.2 110.49 0.39Q109.07 0.2 108.08 0.1 107.09 0 106.48 0L106.48 0Q105.09 0 103.24 0.39L103.24 0.39 103.09 0.15Q103.58-0.56 103.58-2.44L103.58-2.44ZM141.59-35.55L141.59-35.55Q140.3-34.69 139.73-31.93 139.17-29.17 139.05-24.44L139.05-24.44 147.16-24.44 147.16-23.61Q146.72-23.41 146.11-23.23 145.5-23.05 144.81-22.91 144.13-22.78 143.43-22.69 142.74-22.61 142.15-22.61L142.15-22.61 139.05-22.61 139.05-4.39Q139.05-3.42 139.26-2.71 139.47-2 139.95-1.51 140.44-1.03 141.22-0.71 142-0.39 143.15-0.2L143.15-0.2 142.93 0.39Q141.54 0.2 140.42 0.1 139.29 0 138.44 0L138.44 0Q137.05 0 135.19 0.39L135.19 0.39 135.05 0.15Q135.53-0.56 135.53-2.44L135.53-2.44 135.53-22.46 131.38-22.19 131.38-23.56Q133.87-24.34 135.53-24.34L135.53-24.34 135.53-25.15Q135.53-27.27 135.73-29.06 135.93-30.86 136.49-32.34 137.05-33.81 138.04-34.95 139.03-36.08 140.64-36.89L140.64-36.89Q141.91-37.52 143.26-37.79 144.62-38.06 146.25-38.06L146.25-38.06Q146.89-38.06 147.56-38.02 148.23-37.99 148.99-37.94L148.99-37.94Q149.01-37.67 149.01-37.41 149.01-37.16 149.01-36.66 149.01-36.16 148.95-35.4 148.89-34.64 148.79-33.94 148.69-33.23 148.56-32.59 148.43-31.96 148.25-31.49L148.25-31.49 147.45-31.64Q147.45-32.1 147.36-32.8 147.28-33.5 147.16-34.18 147.03-34.86 146.89-35.41 146.74-35.96 146.59-36.16L146.59-36.16Q145.52-36.43 144.64-36.43L144.64-36.43Q142.93-36.43 141.59-35.55ZM163.19-25.39L163.19-25.39Q168.81-25.39 172.01-21.95 175.2-18.51 175.2-12.35L175.2-12.35Q175.2-8.79 173.57-5.71 171.93-2.64 169.13-0.82 166.32 1 163.05 1L163.05 1Q157.41 1 154.22-2.4 151.03-5.81 151.03-12.06L151.03-12.06Q151.03-15.77 152.67-18.84 154.31-21.9 157.1-23.65 159.9-25.39 163.19-25.39ZM162.7-23.71L162.7-23.71Q160.78-23.71 159.36-23.14 157.94-22.58 157.09-21.63 156.24-20.68 155.72-19.21 155.21-17.75 155.03-16.21 154.84-14.67 154.84-12.65L154.84-12.65Q154.84-9.42 155.61-7.02 156.38-4.61 157.68-3.28 158.97-1.95 160.43-1.33 161.9-0.71 163.53-0.71L163.53-0.71Q165.44-0.71 166.87-1.31 168.3-1.9 169.15-2.87 170-3.83 170.52-5.31 171.03-6.79 171.21-8.3 171.4-9.81 171.4-11.74L171.4-11.74Q171.4-14.45 170.88-16.58 170.37-18.7 169.53-20.02 168.69-21.34 167.53-22.19 166.37-23.05 165.19-23.38 164.02-23.71 162.7-23.71Z" opacity="1" transform="matrix(1,0,0,1,0,0)" fill="black" class="wordmark-text-0" id="SvgjsPath2566"></path></svg></g></svg></g></svg></g></svg></g><g transform="matrix(1,0,0,1,101.60063091189883,0)"><svg viewBox="0 0 41.230098176202326 54.15540223105523" height="54.15540223105523" width="41.230098176202326"><g><svg xmlns="http://www.w3.org/2000/svg" xmlns:xlink="http://www.w3.org/1999/xlink" version="1.1" x="0" y="0" viewBox="13.645000000000003 2.248 72.71000000000001 95.50399999999998" enable-background="new 0 0 100 100" xml:space="preserve" height="54.15540223105523" width="41.230098176202326" class="icon-icon-0" data-fill-palette-color="accent" id="SvgjsSvg2565"><path d="M50 2.248c-20.046 0-36.354 16.309-36.355 36.355 0 4.068 0.667 8.062 1.982 11.873 6.04 17.401 16.431 33.138 30.017 45.479 1.166 1.159 2.712 1.797 4.356 1.797 1.645 0 3.189-0.638 4.322-1.766 13.617-12.37 24.009-28.108 30.051-45.513 1.314-3.81 1.982-7.805 1.982-11.871C86.355 18.557 70.047 2.248 50 2.248zM50 66.109c-5.314 0-10.28-1.511-14.498-4.119 0.331-0.351 0.645-0.708 0.94-1.062 1.166-1.399 2.086-2.504 4.004-2.504s2.84 1.104 4.006 2.504c1.26 1.511 2.687 3.223 5.541 3.223 2.855 0 4.282-1.713 5.541-3.223 1.166-1.399 2.086-2.504 4.004-2.504 1.92 0 2.841 1.104 4.008 2.504 0.296 0.355 0.611 0.714 0.944 1.065C60.273 64.601 55.311 66.109 50 66.109zM66.173 60.863c-0.365-0.359-0.718-0.767-1.092-1.216-1.26-1.511-2.688-3.223-5.543-3.223-2.854 0-4.281 1.712-5.54 3.223-1.166 1.399-2.087 2.504-4.005 2.504s-2.839-1.104-4.005-2.504c-1.259-1.511-2.687-3.223-5.542-3.223-2.854 0-4.281 1.712-5.54 3.223-0.372 0.446-0.723 0.854-1.086 1.211-1.168-0.847-2.271-1.778-3.292-2.793 0.124 0.008 0.245 0.018 0.375 0.018 2.854 0 4.281-1.713 5.54-3.225 1.166-1.398 2.086-2.504 4.004-2.504s2.84 1.105 4.006 2.504c1.26 1.512 2.687 3.225 5.541 3.225 2.855 0 4.282-1.713 5.541-3.225 1.166-1.398 2.086-2.504 4.004-2.504 1.92 0 2.841 1.105 4.008 2.504 1.26 1.512 2.688 3.225 5.543 3.225 0.133 0 0.257-0.011 0.383-0.019C68.449 59.082 67.344 60.015 66.173 60.863zM73.22 53.435c-0.04 0.048-0.083 0.097-0.123 0.145-1.167 1.398-2.088 2.504-4.008 2.504s-2.841-1.105-4.008-2.504c-1.26-1.512-2.688-3.225-5.543-3.225-2.854 0-4.281 1.713-5.54 3.225-1.166 1.398-2.087 2.504-4.005 2.504s-2.839-1.105-4.005-2.504c-1.259-1.512-2.687-3.225-5.542-3.225-2.854 0-4.281 1.713-5.54 3.225-1.165 1.398-2.087 2.504-4.004 2.504s-2.837-1.105-4.003-2.504c-0.037-0.044-0.076-0.089-0.113-0.133-1.263-1.95-2.286-4.067-3.029-6.313 0.563 0.44 1.063 1.006 1.604 1.657 1.26 1.51 2.686 3.223 5.54 3.223s4.281-1.712 5.54-3.223c1.166-1.399 2.086-2.504 4.004-2.504s2.84 1.105 4.006 2.504c1.26 1.511 2.687 3.223 5.541 3.223 2.855 0 4.282-1.713 5.541-3.223 1.166-1.399 2.086-2.504 4.004-2.504 1.92 0 2.841 1.105 4.008 2.504 1.26 1.511 2.688 3.223 5.543 3.223s4.283-1.712 5.543-3.223c0.543-0.651 1.045-1.218 1.609-1.658C75.499 49.374 74.479 51.487 73.22 53.435zM76.958 44.545c-1.78 0.514-2.882 1.789-3.861 2.964-1.167 1.399-2.088 2.504-4.008 2.504s-2.841-1.104-4.008-2.504c-1.26-1.511-2.688-3.223-5.543-3.223-2.854 0-4.281 1.712-5.54 3.223-1.166 1.399-2.087 2.504-4.005 2.504s-2.839-1.104-4.005-2.504c-1.259-1.511-2.687-3.223-5.542-3.223-2.854 0-4.281 1.712-5.54 3.223-1.165 1.399-2.087 2.504-4.004 2.504s-2.837-1.104-4.003-2.504c-0.979-1.176-2.08-2.451-3.859-2.965-0.44-1.955-0.68-3.985-0.68-6.072 0-15.24 12.399-27.639 27.64-27.639 15.24 0 27.639 12.397 27.639 27.638C77.639 40.558 77.398 42.589 76.958 44.545z" fill="white"></path></svg></g></svg></g><g></g></svg></g></svg></g><path d="M0 47.689L0 1 244.431 1 244.431 47.689 241.645 47.689 241.645 3.787 2.787 3.787 2.787 47.689 0 47.689M0 199.511L0 246.2 244.431 246.2 244.431 199.511 241.645 199.511 241.645 243.413 2.787 243.413 2.787 199.511 0 199.511" fill="black" stroke="transparent"></path></svg></g><defs><mask></mask></defs></svg><rect width="244.43135999999998" height="247.2" fill="black" stroke="none" visibility="hidden"></rect></g></mask><linearGradient x1="0.054" x2="0.941" y1="0.5" y2="0.5" id="7a3fcff0-61dd-4efc-9227-57943bf7e568"><stop stop-color="#0f3054" offset="0"></stop><stop stop-color="#3b8dcb" offset="0.498"></stop><stop stop-color="#0f3054" offset="1"></stop></linearGradient><rect width="244.43135999999998" height="247.2" fill="url(#7a3fcff0-61dd-4efc-9227-57943bf7e568)" mask="url(#794ef6c0-f106-4e94-b3ba-a16a0dd24e26)" data-fill-palette-color="accent"></rect><mask id="c0c3a865-0819-4950-8a40-ab436c61bac3"><g id="SvgjsG2579"><svg viewBox="0 0 244.43135999999998 247.2" height="247.2" width="244.43135999999998"><g><svg></svg></g><g><svg viewBox="0 0 244.43135999999998 247.2" height="247.2" width="244.43135999999998"><g transform="matrix(1,0,0,1,0,53.68867126113287)"><svg viewBox="0 0 244.43135999999998 139.82265747773425" height="139.82265747773425" width="244.43135999999998"><g><svg viewBox="0 0 244.43135999999998 139.82265747773425" height="139.82265747773425" width="244.43135999999998"><g transform="matrix(1,0,0,1,0,61.45015063105522)"><svg viewBox="0 0 244.43135999999998 78.37250684667904" height="78.37250684667904" width="244.43135999999998"><g id="SvgjsG2578"><svg viewBox="0 0 244.43135999999998 78.37250684667904" height="78.37250684667904" width="244.43135999999998" id="SvgjsSvg2577"><g><svg viewBox="0 0 244.43135999999998 78.37250684667904" height="78.37250684667904" width="244.43135999999998"><rect width="244.43135999999998" height="78.37250684667904" x="0" y="0" opacity="1" fill="white"></rect><g transform="matrix(1,0,0,1,14.589496799999985,14.5894968)"><svg width="215.2523664" viewBox="4.3 -38.06 170.89999999999998 39.06" height="49.193513246679046" data-palette-color="#ffffff"><path d="M7.3-1.86L7.3-1.86Q9.99-0.49 12.6-0.49L12.6-0.49Q14.18-0.49 15.54-0.96 16.89-1.44 17.88-2.39 18.87-3.34 19.43-4.75 20-6.15 20-8.01L20-8.01Q20-9.4 19.7-10.44 19.41-11.47 18.58-12.46 17.75-13.45 16.26-14.58 14.77-15.7 12.35-17.26L12.35-17.26Q8.5-19.78 6.73-22.09 4.96-24.41 4.96-26.81L4.96-26.81Q4.96-29.15 5.93-30.92 6.91-32.69 8.51-33.87 10.11-35.06 12.12-35.66 14.14-36.25 16.21-36.25L16.21-36.25Q19.95-36.25 22.9-34.55L22.9-34.55Q22.22-30.76 20.51-27.2L20.51-27.2 19.85-27.54Q20-28.47 20.08-29.31 20.17-30.15 20.17-30.9 20.17-31.64 20.09-32.26 20.02-32.89 19.9-33.45L19.9-33.45Q17.94-34.59 15.7-34.59L15.7-34.59Q14.28-34.59 13-34.17 11.72-33.74 10.74-32.91 9.77-32.08 9.18-30.87 8.59-29.66 8.59-28.1L8.59-28.1Q8.59-27 8.98-26.05 9.38-25.1 10.19-24.15 11.01-23.19 12.24-22.17 13.48-21.14 15.16-19.9L15.16-19.9Q16.16-19.17 17.04-18.57 17.92-17.97 18.68-17.43 19.43-16.89 20.08-16.38 20.73-15.87 21.29-15.28L21.29-15.28Q24-12.43 24-8.64L24-8.64Q24-6.1 23.11-4.27 22.22-2.44 20.68-1.27 19.14-0.1 17.09 0.45 15.04 1 12.74 1L12.74 1Q8.62 1 4.3-0.66L4.3-0.66Q5.05-4.59 6.69-8.01L6.69-8.01 7.35-7.64Q7.06-6.27 7.06-4.3 7.06-2.32 7.3-1.86ZM30.69-11.89L30.69-11.89Q30.69-14.48 31.54-16.91 32.39-19.34 33.98-21.23 35.57-23.12 37.83-24.26 40.09-25.39 42.89-25.39L42.89-25.39Q44.65-25.39 46.21-24.79 47.78-24.19 48.94-22.94 50.1-21.68 50.77-19.71 51.44-17.75 51.44-15.04L51.44-15.04 50.49-14.16 34.54-14.16Q34.49-13.75 34.49-13.35 34.49-12.96 34.49-12.57L34.49-12.57Q34.49-9.91 35.12-7.74 35.74-5.57 36.8-4.02 37.86-2.47 39.3-1.61 40.74-0.76 42.36-0.76L42.36-0.76Q43.38-0.76 44.44-0.92 45.51-1.07 46.52-1.42 47.53-1.76 48.48-2.29 49.44-2.83 50.24-3.59L50.24-3.59 51.24-2.54Q49.31-0.63 47.04 0.18 44.77 1 41.79 1L41.79 1Q39.45 1 37.41 0.1 35.37-0.81 33.88-2.49 32.39-4.17 31.54-6.56 30.69-8.94 30.69-11.89ZM42.36-23.71L42.36-23.71Q38.57-23.71 36.81-21.74 35.06-19.78 34.69-16.09L34.69-16.09 48.29-16.09Q48.09-20.09 46.49-21.9 44.89-23.71 42.36-23.71ZM74.95-17.65L74.95-2.76Q74.95-2.34 75.13-1.99 75.31-1.64 75.57-1.4 75.83-1.17 76.31-0.95 76.8-0.73 77.17-0.61 77.53-0.49 78.19-0.29L78.19-0.29 78 0.29Q76.44 0 74.9 0L74.9 0Q72.97 0 71.09 0.39L71.09 0.39 70.94 0.15Q71.45-0.56 71.45-2.44L71.45-2.44 71.45-4.05Q70.23-1.78 67.66-0.39 65.08 1 62.45 1L62.45 1Q59.64 1 57.92-0.45 56.2-1.9 56.2-4.76L56.2-4.76Q56.2-6.62 56.97-8.07 57.73-9.52 59.02-10.53 60.3-11.55 62.31-12.33 64.33-13.11 66.46-13.6 68.6-14.09 71.45-14.5L71.45-14.5 71.45-16.75Q71.45-23.46 66.16-23.46L66.16-23.46Q64.45-23.46 61.97-22.62 59.49-21.78 57.81-20.41L57.81-20.41 56.81-21.56Q58.93-23.24 61.85-24.34 64.77-25.44 67.3-25.44L67.3-25.44Q68.43-25.44 69.44-25.23 70.45-25.02 71.49-24.48 72.53-23.93 73.27-23.08 74.02-22.24 74.48-20.84 74.95-19.43 74.95-17.65L74.95-17.65ZM63.59-0.85L63.59-0.85Q65.72-0.85 68.04-2.26 70.36-3.66 71.45-5.76L71.45-5.76 71.45-13.21Q65.2-12.3 62.53-10.44 59.86-8.57 59.86-5L59.86-5Q59.86-2.83 60.79-1.84 61.71-0.85 63.59-0.85ZM91.33-32.59L91.33-32.59 91.33-4.39Q91.33-2.42 92.13-1.51 92.94-0.61 95.18-0.2L95.18-0.2 94.99 0.39Q92.28 0.02 90.86 0 89.45-0.02 87.25 0.39L87.25 0.39 87.08 0.15Q87.59-0.56 87.59-2.44L87.59-2.44 87.59-28.1Q87.59-31.54 86.76-32.74 85.93-33.94 83.29-33.74L83.29-33.74 83.2-34.2Q87.22-35.4 90.84-35.4L90.84-35.4Q91.33-34.06 91.33-32.59ZM103.58-2.44L103.58-18.09Q103.58-19.73 103.42-20.83 103.26-21.92 102.86-22.58 102.46-23.24 101.75-23.51 101.04-23.78 100.25-23.78 99.45-23.78 99.28-23.75L99.28-23.75 99.18-24.19Q103.16-25.39 106.58-25.39L106.58-25.39Q107.09-24.1 107.09-22.61L107.09-22.61 107.09-21.9Q108.51-22.85 109.71-23.56 110.9-24.27 112.06-24.76 113.22-25.24 114.44-25.49 115.66-25.73 117.13-25.73L117.13-25.73Q118.45-25.73 119.75-25.39 121.06-25.05 122.1-24.17 123.13-23.29 123.78-21.78 124.43-20.26 124.43-17.94L124.43-17.94 124.43-2.76Q124.43-2.17 124.71-1.78 124.99-1.39 125.44-1.12 125.89-0.85 126.48-0.67 127.07-0.49 127.7-0.29L127.7-0.29 127.48 0.29Q126.11 0 123.84 0L123.84 0Q122.45 0 120.6 0.39L120.6 0.39 120.45 0.15Q120.94-0.56 120.94-2.44L120.94-2.44 120.94-17.04Q120.94-19.09 120.55-20.4 120.16-21.7 119.48-22.45 118.81-23.19 117.92-23.49 117.03-23.78 116.03-23.78L116.03-23.78Q114.81-23.78 113.75-23.56 112.69-23.34 111.62-22.89 110.56-22.44 109.46-21.77 108.36-21.09 107.09-20.19L107.09-20.19 107.09-3.34Q107.09-2.56 107.22-2.09 107.34-1.61 107.73-1.29 108.12-0.98 108.83-0.73 109.54-0.49 110.68-0.2L110.68-0.2 110.49 0.39Q109.07 0.2 108.08 0.1 107.09 0 106.48 0L106.48 0Q105.09 0 103.24 0.39L103.24 0.39 103.09 0.15Q103.58-0.56 103.58-2.44L103.58-2.44ZM141.59-35.55L141.59-35.55Q140.3-34.69 139.73-31.93 139.17-29.17 139.05-24.44L139.05-24.44 147.16-24.44 147.16-23.61Q146.72-23.41 146.11-23.23 145.5-23.05 144.81-22.91 144.13-22.78 143.43-22.69 142.74-22.61 142.15-22.61L142.15-22.61 139.05-22.61 139.05-4.39Q139.05-3.42 139.26-2.71 139.47-2 139.95-1.51 140.44-1.03 141.22-0.71 142-0.39 143.15-0.2L143.15-0.2 142.93 0.39Q141.54 0.2 140.42 0.1 139.29 0 138.44 0L138.44 0Q137.05 0 135.19 0.39L135.19 0.39 135.05 0.15Q135.53-0.56 135.53-2.44L135.53-2.44 135.53-22.46 131.38-22.19 131.38-23.56Q133.87-24.34 135.53-24.34L135.53-24.34 135.53-25.15Q135.53-27.27 135.73-29.06 135.93-30.86 136.49-32.34 137.05-33.81 138.04-34.95 139.03-36.08 140.64-36.89L140.64-36.89Q141.91-37.52 143.26-37.79 144.62-38.06 146.25-38.06L146.25-38.06Q146.89-38.06 147.56-38.02 148.23-37.99 148.99-37.94L148.99-37.94Q149.01-37.67 149.01-37.41 149.01-37.16 149.01-36.66 149.01-36.16 148.95-35.4 148.89-34.64 148.79-33.94 148.69-33.23 148.56-32.59 148.43-31.96 148.25-31.49L148.25-31.49 147.45-31.64Q147.45-32.1 147.36-32.8 147.28-33.5 147.16-34.18 147.03-34.86 146.89-35.41 146.74-35.96 146.59-36.16L146.59-36.16Q145.52-36.43 144.64-36.43L144.64-36.43Q142.93-36.43 141.59-35.55ZM163.19-25.39L163.19-25.39Q168.81-25.39 172.01-21.95 175.2-18.51 175.2-12.35L175.2-12.35Q175.2-8.79 173.57-5.71 171.93-2.64 169.13-0.82 166.32 1 163.05 1L163.05 1Q157.41 1 154.22-2.4 151.03-5.81 151.03-12.06L151.03-12.06Q151.03-15.77 152.67-18.84 154.31-21.9 157.1-23.65 159.9-25.39 163.19-25.39ZM162.7-23.71L162.7-23.71Q160.78-23.71 159.36-23.14 157.94-22.58 157.09-21.63 156.24-20.68 155.72-19.21 155.21-17.75 155.03-16.21 154.84-14.67 154.84-12.65L154.84-12.65Q154.84-9.42 155.61-7.02 156.38-4.61 157.68-3.28 158.97-1.95 160.43-1.33 161.9-0.71 163.53-0.71L163.53-0.71Q165.44-0.71 166.87-1.31 168.3-1.9 169.15-2.87 170-3.83 170.52-5.31 171.03-6.79 171.21-8.3 171.4-9.81 171.4-11.74L171.4-11.74Q171.4-14.45 170.88-16.58 170.37-18.7 169.53-20.02 168.69-21.34 167.53-22.19 166.37-23.05 165.19-23.38 164.02-23.71 162.7-23.71Z" opacity="1" transform="matrix(1,0,0,1,0,0)" fill="black" class="wordmark-text-0" id="SvgjsPath2576"></path></svg></g></svg></g></svg></g></svg></g><g transform="matrix(1,0,0,1,101.60063091189883,0)"><svg viewBox="0 0 41.230098176202326 54.15540223105523" height="54.15540223105523" width="41.230098176202326"><g><svg xmlns="http://www.w3.org/2000/svg" xmlns:xlink="http://www.w3.org/1999/xlink" version="1.1" x="0" y="0" viewBox="13.645000000000003 2.248 72.71000000000001 95.50399999999998" enable-background="new 0 0 100 100" xml:space="preserve" height="54.15540223105523" width="41.230098176202326" class="icon-icon-0" data-fill-palette-color="accent" id="SvgjsSvg2575"></svg></g></svg></g><g></g></svg></g></svg></g><path d="M0 47.689L0 1 244.431 1 244.431 47.689 241.645 47.689 241.645 3.787 2.787 3.787 2.787 47.689 0 47.689M0 199.511L0 246.2 244.431 246.2 244.431 199.511 241.645 199.511 241.645 243.413 2.787 243.413 2.787 199.511 0 199.511" fill="white" stroke="transparent"></path></svg></g><defs><mask></mask></defs><mask><g id="SvgjsG2574"><svg viewBox="0 0 244.43135999999998 247.2" height="247.2" width="244.43135999999998"><g><svg></svg></g><g><svg viewBox="0 0 244.43135999999998 247.2" height="247.2" width="244.43135999999998"><g transform="matrix(1,0,0,1,0,53.68867126113287)"><svg viewBox="0 0 244.43135999999998 139.82265747773425" height="139.82265747773425" width="244.43135999999998"><g><svg viewBox="0 0 244.43135999999998 139.82265747773425" height="139.82265747773425" width="244.43135999999998"><g transform="matrix(1,0,0,1,0,61.45015063105522)"><svg viewBox="0 0 244.43135999999998 78.37250684667904" height="78.37250684667904" width="244.43135999999998"><g id="SvgjsG2573"><svg viewBox="0 0 244.43135999999998 78.37250684667904" height="78.37250684667904" width="244.43135999999998" id="SvgjsSvg2572"><g><svg viewBox="0 0 244.43135999999998 78.37250684667904" height="78.37250684667904" width="244.43135999999998"><rect width="244.43135999999998" height="78.37250684667904" x="0" y="0" opacity="1" fill="black"></rect><g transform="matrix(1,0,0,1,14.589496799999985,14.5894968)"><svg width="215.2523664" viewBox="4.3 -38.06 170.89999999999998 39.06" height="49.193513246679046" data-palette-color="#ffffff"><path d="M7.3-1.86L7.3-1.86Q9.99-0.49 12.6-0.49L12.6-0.49Q14.18-0.49 15.54-0.96 16.89-1.44 17.88-2.39 18.87-3.34 19.43-4.75 20-6.15 20-8.01L20-8.01Q20-9.4 19.7-10.44 19.41-11.47 18.58-12.46 17.75-13.45 16.26-14.58 14.77-15.7 12.35-17.26L12.35-17.26Q8.5-19.78 6.73-22.09 4.96-24.41 4.96-26.81L4.96-26.81Q4.96-29.15 5.93-30.92 6.91-32.69 8.51-33.87 10.11-35.06 12.12-35.66 14.14-36.25 16.21-36.25L16.21-36.25Q19.95-36.25 22.9-34.55L22.9-34.55Q22.22-30.76 20.51-27.2L20.51-27.2 19.85-27.54Q20-28.47 20.08-29.31 20.17-30.15 20.17-30.9 20.17-31.64 20.09-32.26 20.02-32.89 19.9-33.45L19.9-33.45Q17.94-34.59 15.7-34.59L15.7-34.59Q14.28-34.59 13-34.17 11.72-33.74 10.74-32.91 9.77-32.08 9.18-30.87 8.59-29.66 8.59-28.1L8.59-28.1Q8.59-27 8.98-26.05 9.38-25.1 10.19-24.15 11.01-23.19 12.24-22.17 13.48-21.14 15.16-19.9L15.16-19.9Q16.16-19.17 17.04-18.57 17.92-17.97 18.68-17.43 19.43-16.89 20.08-16.38 20.73-15.87 21.29-15.28L21.29-15.28Q24-12.43 24-8.64L24-8.64Q24-6.1 23.11-4.27 22.22-2.44 20.68-1.27 19.14-0.1 17.09 0.45 15.04 1 12.74 1L12.74 1Q8.62 1 4.3-0.66L4.3-0.66Q5.05-4.59 6.69-8.01L6.69-8.01 7.35-7.64Q7.06-6.27 7.06-4.3 7.06-2.32 7.3-1.86ZM30.69-11.89L30.69-11.89Q30.69-14.48 31.54-16.91 32.39-19.34 33.98-21.23 35.57-23.12 37.83-24.26 40.09-25.39 42.89-25.39L42.89-25.39Q44.65-25.39 46.21-24.79 47.78-24.19 48.94-22.94 50.1-21.68 50.77-19.71 51.44-17.75 51.44-15.04L51.44-15.04 50.49-14.16 34.54-14.16Q34.49-13.75 34.49-13.35 34.49-12.96 34.49-12.57L34.49-12.57Q34.49-9.91 35.12-7.74 35.74-5.57 36.8-4.02 37.86-2.47 39.3-1.61 40.74-0.76 42.36-0.76L42.36-0.76Q43.38-0.76 44.44-0.92 45.51-1.07 46.52-1.42 47.53-1.76 48.48-2.29 49.44-2.83 50.24-3.59L50.24-3.59 51.24-2.54Q49.31-0.63 47.04 0.18 44.77 1 41.79 1L41.79 1Q39.45 1 37.41 0.1 35.37-0.81 33.88-2.49 32.39-4.17 31.54-6.56 30.69-8.94 30.69-11.89ZM42.36-23.71L42.36-23.71Q38.57-23.71 36.81-21.74 35.06-19.78 34.69-16.09L34.69-16.09 48.29-16.09Q48.09-20.09 46.49-21.9 44.89-23.71 42.36-23.71ZM74.95-17.65L74.95-2.76Q74.95-2.34 75.13-1.99 75.31-1.64 75.57-1.4 75.83-1.17 76.31-0.95 76.8-0.73 77.17-0.61 77.53-0.49 78.19-0.29L78.19-0.29 78 0.29Q76.44 0 74.9 0L74.9 0Q72.97 0 71.09 0.39L71.09 0.39 70.94 0.15Q71.45-0.56 71.45-2.44L71.45-2.44 71.45-4.05Q70.23-1.78 67.66-0.39 65.08 1 62.45 1L62.45 1Q59.64 1 57.92-0.45 56.2-1.9 56.2-4.76L56.2-4.76Q56.2-6.62 56.97-8.07 57.73-9.52 59.02-10.53 60.3-11.55 62.31-12.33 64.33-13.11 66.46-13.6 68.6-14.09 71.45-14.5L71.45-14.5 71.45-16.75Q71.45-23.46 66.16-23.46L66.16-23.46Q64.45-23.46 61.97-22.62 59.49-21.78 57.81-20.41L57.81-20.41 56.81-21.56Q58.93-23.24 61.85-24.34 64.77-25.44 67.3-25.44L67.3-25.44Q68.43-25.44 69.44-25.23 70.45-25.02 71.49-24.48 72.53-23.93 73.27-23.08 74.02-22.24 74.48-20.84 74.95-19.43 74.95-17.65L74.95-17.65ZM63.59-0.85L63.59-0.85Q65.72-0.85 68.04-2.26 70.36-3.66 71.45-5.76L71.45-5.76 71.45-13.21Q65.2-12.3 62.53-10.44 59.86-8.57 59.86-5L59.86-5Q59.86-2.83 60.79-1.84 61.71-0.85 63.59-0.85ZM91.33-32.59L91.33-32.59 91.33-4.39Q91.33-2.42 92.13-1.51 92.94-0.61 95.18-0.2L95.18-0.2 94.99 0.39Q92.28 0.02 90.86 0 89.45-0.02 87.25 0.39L87.25 0.39 87.08 0.15Q87.59-0.56 87.59-2.44L87.59-2.44 87.59-28.1Q87.59-31.54 86.76-32.74 85.93-33.94 83.29-33.74L83.29-33.74 83.2-34.2Q87.22-35.4 90.84-35.4L90.84-35.4Q91.33-34.06 91.33-32.59ZM103.58-2.44L103.58-18.09Q103.58-19.73 103.42-20.83 103.26-21.92 102.86-22.58 102.46-23.24 101.75-23.51 101.04-23.78 100.25-23.78 99.45-23.78 99.28-23.75L99.28-23.75 99.18-24.19Q103.16-25.39 106.58-25.39L106.58-25.39Q107.09-24.1 107.09-22.61L107.09-22.61 107.09-21.9Q108.51-22.85 109.71-23.56 110.9-24.27 112.06-24.76 113.22-25.24 114.44-25.49 115.66-25.73 117.13-25.73L117.13-25.73Q118.45-25.73 119.75-25.39 121.06-25.05 122.1-24.17 123.13-23.29 123.78-21.78 124.43-20.26 124.43-17.94L124.43-17.94 124.43-2.76Q124.43-2.17 124.71-1.78 124.99-1.39 125.44-1.12 125.89-0.85 126.48-0.67 127.07-0.49 127.7-0.29L127.7-0.29 127.48 0.29Q126.11 0 123.84 0L123.84 0Q122.45 0 120.6 0.39L120.6 0.39 120.45 0.15Q120.94-0.56 120.94-2.44L120.94-2.44 120.94-17.04Q120.94-19.09 120.55-20.4 120.16-21.7 119.48-22.45 118.81-23.19 117.92-23.49 117.03-23.78 116.03-23.78L116.03-23.78Q114.81-23.78 113.75-23.56 112.69-23.34 111.62-22.89 110.56-22.44 109.46-21.77 108.36-21.09 107.09-20.19L107.09-20.19 107.09-3.34Q107.09-2.56 107.22-2.09 107.34-1.61 107.73-1.29 108.12-0.98 108.83-0.73 109.54-0.49 110.68-0.2L110.68-0.2 110.49 0.39Q109.07 0.2 108.08 0.1 107.09 0 106.48 0L106.48 0Q105.09 0 103.24 0.39L103.24 0.39 103.09 0.15Q103.58-0.56 103.58-2.44L103.58-2.44ZM141.59-35.55L141.59-35.55Q140.3-34.69 139.73-31.93 139.17-29.17 139.05-24.44L139.05-24.44 147.16-24.44 147.16-23.61Q146.72-23.41 146.11-23.23 145.5-23.05 144.81-22.91 144.13-22.78 143.43-22.69 142.74-22.61 142.15-22.61L142.15-22.61 139.05-22.61 139.05-4.39Q139.05-3.42 139.26-2.71 139.47-2 139.95-1.51 140.44-1.03 141.22-0.71 142-0.39 143.15-0.2L143.15-0.2 142.93 0.39Q141.54 0.2 140.42 0.1 139.29 0 138.44 0L138.44 0Q137.05 0 135.19 0.39L135.19 0.39 135.05 0.15Q135.53-0.56 135.53-2.44L135.53-2.44 135.53-22.46 131.38-22.19 131.38-23.56Q133.87-24.34 135.53-24.34L135.53-24.34 135.53-25.15Q135.53-27.27 135.73-29.06 135.93-30.86 136.49-32.34 137.05-33.81 138.04-34.95 139.03-36.08 140.64-36.89L140.64-36.89Q141.91-37.52 143.26-37.79 144.62-38.06 146.25-38.06L146.25-38.06Q146.89-38.06 147.56-38.02 148.23-37.99 148.99-37.94L148.99-37.94Q149.01-37.67 149.01-37.41 149.01-37.16 149.01-36.66 149.01-36.16 148.95-35.4 148.89-34.64 148.79-33.94 148.69-33.23 148.56-32.59 148.43-31.96 148.25-31.49L148.25-31.49 147.45-31.64Q147.45-32.1 147.36-32.8 147.28-33.5 147.16-34.18 147.03-34.86 146.89-35.41 146.74-35.96 146.59-36.16L146.59-36.16Q145.52-36.43 144.64-36.43L144.64-36.43Q142.93-36.43 141.59-35.55ZM163.19-25.39L163.19-25.39Q168.81-25.39 172.01-21.95 175.2-18.51 175.2-12.35L175.2-12.35Q175.2-8.79 173.57-5.71 171.93-2.64 169.13-0.82 166.32 1 163.05 1L163.05 1Q157.41 1 154.22-2.4 151.03-5.81 151.03-12.06L151.03-12.06Q151.03-15.77 152.67-18.84 154.31-21.9 157.1-23.65 159.9-25.39 163.19-25.39ZM162.7-23.71L162.7-23.71Q160.78-23.71 159.36-23.14 157.94-22.58 157.09-21.63 156.24-20.68 155.72-19.21 155.21-17.75 155.03-16.21 154.84-14.67 154.84-12.65L154.84-12.65Q154.84-9.42 155.61-7.02 156.38-4.61 157.68-3.28 158.97-1.95 160.43-1.33 161.9-0.71 163.53-0.71L163.53-0.71Q165.44-0.71 166.87-1.31 168.3-1.9 169.15-2.87 170-3.83 170.52-5.31 171.03-6.79 171.21-8.3 171.4-9.81 171.4-11.74L171.4-11.74Q171.4-14.45 170.88-16.58 170.37-18.7 169.53-20.02 168.69-21.34 167.53-22.19 166.37-23.05 165.19-23.38 164.02-23.71 162.7-23.71Z" opacity="1" transform="matrix(1,0,0,1,0,0)" fill="black" class="wordmark-text-0" id="SvgjsPath2571"></path></svg></g></svg></g></svg></g></svg></g><g transform="matrix(1,0,0,1,101.60063091189883,0)"><svg viewBox="0 0 41.230098176202326 54.15540223105523" height="54.15540223105523" width="41.230098176202326"><g><svg xmlns="http://www.w3.org/2000/svg" xmlns:xlink="http://www.w3.org/1999/xlink" version="1.1" x="0" y="0" viewBox="13.645000000000003 2.248 72.71000000000001 95.50399999999998" enable-background="new 0 0 100 100" xml:space="preserve" height="54.15540223105523" width="41.230098176202326" class="icon-icon-0" data-fill-palette-color="accent" id="SvgjsSvg2570"><path d="M50 2.248c-20.046 0-36.354 16.309-36.355 36.355 0 4.068 0.667 8.062 1.982 11.873 6.04 17.401 16.431 33.138 30.017 45.479 1.166 1.159 2.712 1.797 4.356 1.797 1.645 0 3.189-0.638 4.322-1.766 13.617-12.37 24.009-28.108 30.051-45.513 1.314-3.81 1.982-7.805 1.982-11.871C86.355 18.557 70.047 2.248 50 2.248zM50 66.109c-5.314 0-10.28-1.511-14.498-4.119 0.331-0.351 0.645-0.708 0.94-1.062 1.166-1.399 2.086-2.504 4.004-2.504s2.84 1.104 4.006 2.504c1.26 1.511 2.687 3.223 5.541 3.223 2.855 0 4.282-1.713 5.541-3.223 1.166-1.399 2.086-2.504 4.004-2.504 1.92 0 2.841 1.104 4.008 2.504 0.296 0.355 0.611 0.714 0.944 1.065C60.273 64.601 55.311 66.109 50 66.109zM66.173 60.863c-0.365-0.359-0.718-0.767-1.092-1.216-1.26-1.511-2.688-3.223-5.543-3.223-2.854 0-4.281 1.712-5.54 3.223-1.166 1.399-2.087 2.504-4.005 2.504s-2.839-1.104-4.005-2.504c-1.259-1.511-2.687-3.223-5.542-3.223-2.854 0-4.281 1.712-5.54 3.223-0.372 0.446-0.723 0.854-1.086 1.211-1.168-0.847-2.271-1.778-3.292-2.793 0.124 0.008 0.245 0.018 0.375 0.018 2.854 0 4.281-1.713 5.54-3.225 1.166-1.398 2.086-2.504 4.004-2.504s2.84 1.105 4.006 2.504c1.26 1.512 2.687 3.225 5.541 3.225 2.855 0 4.282-1.713 5.541-3.225 1.166-1.398 2.086-2.504 4.004-2.504 1.92 0 2.841 1.105 4.008 2.504 1.26 1.512 2.688 3.225 5.543 3.225 0.133 0 0.257-0.011 0.383-0.019C68.449 59.082 67.344 60.015 66.173 60.863zM73.22 53.435c-0.04 0.048-0.083 0.097-0.123 0.145-1.167 1.398-2.088 2.504-4.008 2.504s-2.841-1.105-4.008-2.504c-1.26-1.512-2.688-3.225-5.543-3.225-2.854 0-4.281 1.713-5.54 3.225-1.166 1.398-2.087 2.504-4.005 2.504s-2.839-1.105-4.005-2.504c-1.259-1.512-2.687-3.225-5.542-3.225-2.854 0-4.281 1.713-5.54 3.225-1.165 1.398-2.087 2.504-4.004 2.504s-2.837-1.105-4.003-2.504c-0.037-0.044-0.076-0.089-0.113-0.133-1.263-1.95-2.286-4.067-3.029-6.313 0.563 0.44 1.063 1.006 1.604 1.657 1.26 1.51 2.686 3.223 5.54 3.223s4.281-1.712 5.54-3.223c1.166-1.399 2.086-2.504 4.004-2.504s2.84 1.105 4.006 2.504c1.26 1.511 2.687 3.223 5.541 3.223 2.855 0 4.282-1.713 5.541-3.223 1.166-1.399 2.086-2.504 4.004-2.504 1.92 0 2.841 1.105 4.008 2.504 1.26 1.511 2.688 3.223 5.543 3.223s4.283-1.712 5.543-3.223c0.543-0.651 1.045-1.218 1.609-1.658C75.499 49.374 74.479 51.487 73.22 53.435zM76.958 44.545c-1.78 0.514-2.882 1.789-3.861 2.964-1.167 1.399-2.088 2.504-4.008 2.504s-2.841-1.104-4.008-2.504c-1.26-1.511-2.688-3.223-5.543-3.223-2.854 0-4.281 1.712-5.54 3.223-1.166 1.399-2.087 2.504-4.005 2.504s-2.839-1.104-4.005-2.504c-1.259-1.511-2.687-3.223-5.542-3.223-2.854 0-4.281 1.712-5.54 3.223-1.165 1.399-2.087 2.504-4.004 2.504s-2.837-1.104-4.003-2.504c-0.979-1.176-2.08-2.451-3.859-2.965-0.44-1.955-0.68-3.985-0.68-6.072 0-15.24 12.399-27.639 27.64-27.639 15.24 0 27.639 12.397 27.639 27.638C77.639 40.558 77.398 42.589 76.958 44.545z" fill="black"></path></svg></g></svg></g><g></g></svg></g></svg></g><path d="M0 47.689L0 1 244.431 1 244.431 47.689 241.645 47.689 241.645 3.787 2.787 3.787 2.787 47.689 0 47.689M0 199.511L0 246.2 244.431 246.2 244.431 199.511 241.645 199.511 241.645 243.413 2.787 243.413 2.787 199.511 0 199.511" fill="black" stroke="transparent"></path></svg></g><defs><mask></mask></defs></svg><rect width="244.43135999999998" height="247.2" fill="black" stroke="none" visibility="hidden"></rect></g></mask></svg><rect width="244.43135999999998" height="247.2" fill="black" stroke="none" visibility="hidden"></rect></g></mask><linearGradient x1="0.054" x2="0.941" y1="0.5" y2="0.5" id="36f9e4f1-38b3-43a6-a56b-318908158bce"><stop stop-color="#0f3054" offset="0"></stop><stop stop-color="#3b8dcb" offset="0.498"></stop><stop stop-color="#0f3054" offset="1"></stop></linearGradient></svg><rect width="244.43135999999998" height="247.2" fill="none" stroke="none" visibility="hidden"></rect></g></svg></g></svg>